<svg width="44" height="45" fill="none" xmlns="http://www.w3.org/2000/svg"><mask id="a" style="mask-type:alpha" maskUnits="userSpaceOnUse" x="0" y="0" width="44" height="45"><path fill-rule="evenodd" clip-rule="evenodd" d="M0 22.486C0 10.4 9.85.6 22 .6s22 9.799 22 21.886c0 12.088-9.85 21.886-22 21.886S0 34.574 0 22.486z" fill="#fff"/></mask><g mask="url(#a)" fill-rule="evenodd" clip-rule="evenodd"><path d="M0 22.486C0 10.4 9.85.6 22 .6s22 9.799 22 21.886c0 12.088-9.85 21.886-22 21.886S0 34.574 0 22.486z" fill="#0E5A4C"/><path d="M22.001 10.813c-3.187 0-3.587.014-4.838.07-1.25.058-2.102.255-2.848.543a5.748 5.748 0 00-2.078 1.346 5.725 5.725 0 00-1.355 2.068c-.29.742-.489 1.59-.545 2.833-.056 1.245-.07 1.643-.07 4.813s.014 3.567.07 4.812c.058 1.243.256 2.09.546 2.833.3.768.7 1.419 1.353 2.068a5.749 5.749 0 002.078 1.347c.746.289 1.6.486 2.848.542 1.252.057 1.651.07 4.838.07 3.186 0 3.585-.013 4.837-.07 1.249-.056 2.102-.253 2.849-.542a5.745 5.745 0 002.077-1.347 5.727 5.727 0 001.354-2.068c.289-.742.487-1.59.545-2.833.057-1.245.071-1.642.071-4.812 0-3.17-.014-3.568-.07-4.813-.06-1.243-.257-2.09-.546-2.833a5.726 5.726 0 00-1.354-2.068 5.737 5.737 0 00-2.078-1.346c-.748-.289-1.6-.485-2.85-.542-1.252-.057-1.65-.07-4.838-.07h.004zm-1.052 2.104H22c3.133 0 3.504.011 4.741.067 1.145.052 1.765.242 2.179.402a3.63 3.63 0 011.348.873c.411.409.665.798.878 1.343.161.41.352 1.028.405 2.166.056 1.23.068 1.6.068 4.716 0 3.115-.012 3.484-.069 4.715-.052 1.138-.243 1.756-.404 2.167a3.609 3.609 0 01-.878 1.34c-.41.41-.8.662-1.348.874-.413.16-1.034.35-2.178.402-1.237.056-1.609.068-4.742.068s-3.504-.012-4.741-.068c-1.144-.053-1.765-.243-2.179-.402a3.638 3.638 0 01-1.35-.873 3.617 3.617 0 01-.877-1.342c-.16-.411-.352-1.029-.404-2.167-.057-1.23-.068-1.6-.068-4.717 0-3.117.011-3.485.068-4.716.052-1.138.243-1.755.404-2.167.212-.545.467-.934.878-1.342.41-.409.802-.662 1.35-.874.413-.16 1.034-.35 2.178-.402 1.082-.049 1.502-.063 3.689-.066v.003zm7.315 1.938c-.777 0-1.408.627-1.408 1.4 0 .774.631 1.401 1.408 1.401.778 0 1.408-.627 1.408-1.4 0-.774-.63-1.401-1.408-1.401zm-6.263 1.637c-3.328 0-6.026 2.684-6.026 5.994 0 3.31 2.698 5.994 6.026 5.994s6.025-2.683 6.025-5.994c0-3.31-2.698-5.994-6.025-5.994zm0 2.103c2.16 0 3.911 1.742 3.911 3.891 0 2.15-1.75 3.891-3.91 3.891s-3.912-1.742-3.912-3.89c0-2.15 1.751-3.892 3.911-3.892z" fill="#fff"/></g></svg>