<?xml version="1.0" encoding="utf-8"?><svg viewBox="0 0 26 20" xmlns="http://www.w3.org/2000/svg" xmlns:xlink="http://www.w3.org/1999/xlink"><style>:root>svg{display:none}:root>svg:target{display:block}</style><svg viewBox="0 0 7 4" id="angle" xmlns="http://www.w3.org/2000/svg"><path d="M6.92 3.69a.273.273 0 01-.387 0L3.693.856a.274.274 0 00-.387 0L.466 3.69a.273.273 0 01-.386-.387L2.92.47a.818.818 0 011.16 0l2.84 2.833a.273.273 0 010 .387z"/></svg><svg viewBox="0 0 20 19" id="cart" xmlns="http://www.w3.org/2000/svg"><path d="M20 6.579h-3.396L13.036.319a.608.608 0 00-.858-.225.678.678 0 00-.214.902l3.182 5.583H4.854L8.036.996a.678.678 0 00-.214-.902.608.608 0 00-.858.225L3.396 6.58H0v1.316h1.357l1.587 8.915c.166.934.941 1.611 1.844 1.611h10.424c.902 0 1.678-.677 1.843-1.61l1.588-8.916H20V6.579zm-4.174 9.99a.634.634 0 01-.614.536H4.788c-.301 0-.56-.225-.615-.537L2.628 7.895h14.744l-1.546 8.674z"/></svg><svg fill="none" viewBox="0 0 26 20" id="eye" xmlns="http://www.w3.org/2000/svg"><path clip-rule="evenodd" d="M16.952 10.066a3.952 3.952 0 11-7.904-.001 3.952 3.952 0 017.904.001z" stroke="#fff" stroke-width="1.5" stroke-linecap="round" stroke-linejoin="round"/><path clip-rule="evenodd" d="M12.998 19.194c4.76 0 9.113-3.423 11.565-9.128C22.11 4.361 17.758.94 12.998.94h.005c-4.76 0-9.114 3.422-11.566 9.127 2.452 5.705 6.805 9.128 11.566 9.128h-.005z" stroke="#fff" stroke-width="1.5" stroke-linecap="round" stroke-linejoin="round"/></svg><svg fill="none" viewBox="0 0 6 11" id="tooltip" xmlns="http://www.w3.org/2000/svg"><path d="M3.78 7.852H2.184a4.09 4.09 0 01.14-1.31c.121-.38.28-.691.476-.933.205-.25.41-.478.616-.682.205-.204.401-.427.588-.669.196-.25.327-.51.392-.78.075-.547-.037-.974-.336-1.28-.299-.317-.69-.474-1.176-.474-.364 0-.695.12-.994.362a1.447 1.447 0 00-.532.96H0C.037 2.147.313 1.465.826 1 1.349.535 2.03.303 2.87.303 3.645.284 4.321.475 4.9.874c.588.4.938.924 1.05 1.574.056.353.065.66.028.92-.037.333-.145.649-.322.946-.168.288-.36.543-.574.766-.205.223-.41.46-.616.71a2.934 2.934 0 00-.504.892c-.13.343-.191.733-.182 1.17zm-.154 2.2a.903.903 0 01-.644.237c-.261 0-.485-.079-.672-.237a.782.782 0 01-.266-.613c0-.25.089-.454.266-.612.187-.158.41-.237.672-.237.261 0 .476.079.644.237a.782.782 0 01.266.612c0 .251-.089.455-.266.613z" fill="#444B58"/></svg><svg fill="none" viewBox="0 0 20 20" id="trash" xmlns="http://www.w3.org/2000/svg"><g clip-path="url(#eclip0_65_683)" fill="#4D4D4D" fill-opacity=".3"><path d="M18.572 2.857h-5v-.714C13.572.959 12.611 0 11.428 0H8.572C7.388 0 6.429.96 6.429 2.143v.714h-5a.714.714 0 100 1.429h.776L3.572 19.35c.033.369.343.65.714.649h11.428c.37.002.681-.28.715-.65l1.366-15.064h.776a.714.714 0 100-1.429zM7.857 2.143c0-.395.32-.714.715-.714h2.857c.394 0 .714.32.714.714v.714H7.857v-.714zm7.205 16.428H4.938L3.643 4.286H16.36L15.062 18.57z"/><path d="M7.857 16.381v-.003l-.714-10a.716.716 0 00-1.429.101l.715 10a.714.714 0 00.714.664h.051a.714.714 0 00.663-.762zM10 5.714a.714.714 0 00-.714.715v10a.714.714 0 101.428 0v-10A.714.714 0 0010 5.714zM13.622 5.714a.716.716 0 00-.765.664l-.714 10a.714.714 0 00.66.764H12.856c.376.002.688-.288.715-.663l.715-10a.716.716 0 00-.664-.765z"/></g><defs><clipPath id="eclip0_65_683"><path fill="#fff" d="M0 0h20v20H0z"/></clipPath></defs></svg></svg>